<svg width="200" height="75" xmlns="http://www.w3.org/2000/svg" stroke="null" style="vector-effect: non-scaling-stroke;">
 <g stroke="null" id="Layer_1">
  <title stroke="null">Layer 1</title>
  <g stroke="null" id="svg_31">
   <text stroke="#000" transform="rotate(47.8518 119.307 23.0148) matrix(3.92629 0 0 4.14366 -11.2445 -111.121)" xml:space="preserve" text-anchor="start" font-family="Noto Sans JP" font-size="24" stroke-width="0" id="svg_15" y="40.48213" x="29.25426" fill="#000000">-</text>
   <g stroke="null" id="svg_26">
    <text stroke="#000" transform="matrix(4.46327 0 0 2.7529 -194.295 1.28262)" xml:space="preserve" text-anchor="start" font-family="Noto Sans JP" font-size="24" id="svg_2" y="21.53135" x="62.41496" stroke-width="0" fill="#000000">R</text>
    <text stroke="#000" transform="matrix(4.46327 0 0 2.7529 -194.295 1.28262)" xml:space="preserve" text-anchor="start" font-family="Noto Sans JP" font-size="24" id="svg_16" y="21.53135" x="62.41496" stroke-width="0" fill="#000000">R</text>
   </g>
   <g stroke="null" transform="rotate(180 81.5086 39.0779)" id="svg_29">
    <text stroke="#000" transform="matrix(4.46327 0 0 2.7529 -194.295 1.28262)" xml:space="preserve" text-anchor="start" font-family="Noto Sans JP" font-size="24" id="svg_27" y="21.81558" x="53.54408" stroke-width="0" fill="#000000">R</text>
    <text stroke="#000" transform="matrix(4.46327 0 0 2.7529 -194.295 1.28262)" xml:space="preserve" text-anchor="start" font-family="Noto Sans JP" font-size="24" id="svg_28" y="21.81558" x="53.54408" stroke-width="0" fill="#000000">R</text>
   </g>
   <text stroke="#000" transform="rotate(-134.722 83.3042 53.328) matrix(4.40697 0 0 4.05273 -515.783 -60.1953)" xml:space="preserve" text-anchor="start" font-family="Noto Sans JP" font-size="24" id="svg_30" y="36.0994" x="131.94483" stroke-width="0" fill="#000000">-</text>
  </g>
  <text stroke="#000" style="vector-effect: non-scaling-stroke;" transform="matrix(1.31327 0 0 1 -22.2871 0)" xml:space="preserve" text-anchor="start" font-family="Noto Sans JP" font-size="24" id="svg_32" y="54.39358" x="71.14241" stroke-width="0" fill="#000000">-</text>
  <text stroke="#000" transform="matrix(2.96861 0 0 4.26421 -105.911 -169.796)" xml:space="preserve" text-anchor="start" font-family="Noto Sans JP" font-size="24" id="svg_33" y="58.52" x="69.6435" stroke-width="0" fill="#000000">-</text>
  <text transform="rotate(-137.793 113.355 60.2942) matrix(2.42701 0 0 3.1484 -201.787 -100.809)" stroke="#000" xml:space="preserve" text-anchor="start" font-family="Noto Sans JP" font-size="24" id="svg_34" y="59.25362" x="125.8513" stroke-width="0" fill="#ffffff">-</text>
 </g>

</svg>